<svg xmlns="http://www.w3.org/2000/svg" version="1.1" width="600px" height="600px" viewBox="0 0 200 200" style="overflow:hidden!important;"><g id="svga-group-wrapper"><g id="svga-group-backs-single"></g><g id="svga-group-humanwrap-move" transform="matrix(1,0,0,1,0,0)"><g id="svga-group-humanwrap"><g id="svga-group-hair-back-move" transform="matrix(1,0,0,1,0,0)"><g id="svga-group-hair-back"><path id="SvgjsPath8704" d="M156.2 138.1c3.7 10.9 9.7 17.5 2.9 25.5-6.9 8-7.1 9.2-15.4 13.2s-79.6 3.7-86.1-3.7S48 157.6 46 139s-1.1-38.6 1.1-44.4c2.3-5.7 4.9-24 17.7-28.3s63-6.6 72.1-.9 18.9 8.6 20.3 21.5 0 16.3.9 29.5-1.9 21.7-1.9 21.7z" fill="#1b141c" stroke-width="none" opacity="1" stroke="none"></path><path id="SvgjsPath8705" d="M67.1 120.9c1.5 3.2 1.8 10.2-1.6 13.8-2.4 2.6-3.8 7.2 1.3 15.3 5.1 8.1 7.3 9 6.8 13.9s-5.4 16.1-.2 9.5c5.1-6.6 7.4-15.2 4-20.1s-4.9-9.3-4.7-15.6c.2-6.3.4-9.2.4-9.2l-6-7.6zm61.7 5.4c4.4 5.4 9.8 1.5 6.1 8.3-3.7 6.8-7.8 9.3-5.1 15.1 2.7 5.9 10.5 6.3 10.2 13.2-.2 6.8-7.3 16.4-7.3 16.4s6.3-12.4 2.7-16.1-14.9-9.5-10.6-20.6c2.1-5.3 7.2-10.9 5.9-12.6s-1.9-3.7-1.9-3.7z" fill="#2a232b" stroke-width="none" opacity="1" stroke="none"></path></g></g><g id="svga-group-humanbody-back"><path id="SvgjsPath6241" d="m168.5 219.5-1.7-21.5s.7-9-8.8-15.3-23.4-10.1-29.5-14.2c-6.1-4.1-9.2-4.5-9-16.9s.9-40.3.9-40.3H79.6s.7 27.9.9 40.3c.2 12.4-2.9 12.8-9 16.9-6.1 4.1-20 7.9-29.5 14.2S33.2 198 33.2 198l-1.6 21.5h136.9z" fill="#8c5537" stroke-width="none" opacity="1" stroke="none"></path></g><g id="svga-group-chinshadow-single"><path id="SvgjsPath6237" d="M100 163.9c5.96 0 13.3-4.65 19.53-9.3-.03-.92-.04-1.91-.03-3 .2-12.4.9-40.3.9-40.3H79.6s.7 27.9.9 40.3c.02 1.09.01 2.08-.03 3 6.23 4.65 13.57 9.3 19.53 9.3z" fill="#6d3415" stroke-width="none" opacity="0.65" stroke="none"></path></g><g id="svga-group-humanbody-front"><path id="SvgjsPath6242" d="M73.8 175.9c5.1 2.9 11.8 5.2 17.6 5.7.4 0 .4-.6.1-.7-2.8-1.1-5.9-1.7-8.8-2.6-2.9-.9-5.8-2-8.8-2.7-.1-.1-.3.2-.1.3zm35.2 6.2c5.3-.6 11.3-3 15.9-5.8.3-.2.1-.6-.2-.5-2.6.9-5.2 2-7.8 2.9-2.6.9-5.4 1.5-8 2.5-.5.1-.5.9.1.9z" fill="#6d3415" stroke-width="none" opacity="1" stroke="none"></path><path id="SvgjsPath6243" d="m168.4 219.4-2.1-21.4c0-2.2-.5-4.5-1.5-6.6-.9-2.1-2.3-3.9-3.9-5.5s-3.5-2.8-5.5-4c-2-1.2-4.1-2.2-6.2-3.1-4.2-1.9-8.6-3.6-12.9-5.4-2.2-.9-4.3-1.9-6.4-3-1.1-.6-2.1-1.2-3-1.9-1-.6-2-1.2-3-1.9s-2-1.5-2.8-2.6c-.8-1-1.3-2.2-1.7-3.4-.7-2.4-.8-4.8-.8-7.2 0-4.7.2-9.4.3-14.1.2-9.4.6-18.7.9-28l.6.6-20.4-.2-20.4-.1.3-.3.7 28c.1 4.7.3 9.3.4 14 0 2.4-.1 4.7-.8 7.1-.3 1.2-.9 2.3-1.6 3.3-.8 1-1.7 1.8-2.7 2.5s-2 1.3-2.9 2c-.9.6-1.9 1.3-3 1.9-2.1 1.2-4.2 2.1-6.4 3.1-4.3 1.9-8.6 3.6-12.8 5.6-2.1 1-4.2 2.1-6.1 3.2-2 1.2-3.8 2.4-5.4 4-1.6 1.6-2.9 3.4-3.8 5.4-.4 1-.8 2.1-1 3.1-.2 1.1-.4 2.2-.3 3.2v.2l-1.5 21.5-1-1.1 34 .1c11.3 0 22.7.1 34.1.2l34.2.3 34.4.5zm.2.2-34 .4-34.2.3c-11.4.1-22.9.2-34.4.2l-34.4.1h-1.1l.1-1.1 1.7-21.5v.1c-.1-5.1 2.2-9.8 5.7-13.3 1.7-1.7 3.8-3.1 5.8-4.3 2-1.2 4.2-2.2 6.3-3.2 4.3-2 8.7-3.7 13-5.4 2.1-.9 4.3-1.8 6.3-2.9 1-.5 1.9-1.1 3-1.8 1-.6 2-1.2 2.9-1.9.9-.6 1.8-1.4 2.4-2.2.7-.9 1.2-1.9 1.5-2.9.6-2.1.8-4.5.8-6.8 0-4.6-.1-9.3-.2-14l-.6-28v-.3h.3l20.4-.1 20.4-.2h.6v.6c-.1 9.3-.2 18.7-.4 28-.1 4.7-.2 9.4-.2 14 .1 2.3.2 4.6.8 6.7.3 1.1.8 2 1.4 2.9.6.8 1.4 1.6 2.4 2.2.9.6 1.9 1.3 2.9 1.9 1 .7 1.9 1.3 2.9 1.8 2 1.1 4.1 2.1 6.3 3 4.3 1.8 8.6 3.6 12.9 5.6 2.1 1 4.2 2.1 6.2 3.3 2 1.2 4 2.6 5.7 4.3 3.4 3.4 5.6 8.1 5.4 13v-.1l1.4 21.6zm-112.8-.4 1.9-13.8.1 13.8h-2zm88.6 0-1.9-13.8-.1 13.8h2z" fill="#5e2709" stroke-width="none" opacity="1" stroke="none"></path></g><g id="svga-group-clothes-single"><path id="SvgjsPath8888" d="m143.2 220 .1-3.6 26.8-2.6s-1.2-16.5-1.9-20-2.3-8.6-12.1-14-27.7-12.4-27.7-12.4c-31.6 30.5-56-.1-56.7 0 0 0-17.9 7-27.7 12.4s-11.4 10.5-12.1 14-1.9 20-1.9 20l26.8 2.6v3.6h86.4z" fill="#a44974" stroke-width="none" opacity="1"></path><path id="SvgjsPath8889" d="M170.7 213.8c-.4-5.8-.7-11.6-1.3-17.4-.3-2.9-.9-6-2.6-8.6-1.6-2.6-3.9-4.6-6.4-6.3-2.4-1.7-5.1-3.1-7.7-4.4-2.6-1.3-5.3-2.5-7.9-3.7-5.3-2.4-10.7-4.5-16.2-6.6-.2-.1-.5 0-.7.1-3.8 3.8-8 7.1-12.7 9.6-4.7 2.5-9.9 4-15.2 4.1-2.7 0-5.3-.3-7.9-.9-2.6-.7-5.1-1.7-7.4-2.9s-4.6-2.7-6.7-4.3c-1.1-.8-2.1-1.7-3.1-2.6-.5-.4-1-.9-1.4-1.4l-.7-.7-.4-.4-.2-.2-.1-.1-.1-.1s-.2-.1-.3-.1h-.1c-5.4 2.1-10.8 4.2-16.2 6.5-2.7 1.1-5.3 2.3-8 3.6-2.6 1.3-5.2 2.6-7.7 4.3-2.4 1.7-4.8 3.7-6.4 6.3-1.7 2.6-2.4 5.7-2.7 8.6-.7 5.8-1.1 11.6-1.6 17.4 0 .5.4 1 .9 1.1l13.4 1.3 12.5 1.2v2.7c0 .6.5 1 1 1 7.3 0 14.5 0 21.8-.1l21.7-.2 43-.6.2-3.5 13.2-1 13.4-1.1c.4 0 .6-.3.6-.6zm-14.1.8-13.4 1.6c-.1 0-.2.1-.2.2l.1 3.6-43.4-.6-21.5-.2c-6.8-.1-13.6-.1-20.4-.1v-2.6c0-.5-.4-1-.9-1L43.5 214 31 212.9c.4-5.4.8-10.9 1.3-16.3.3-2.9.9-5.6 2.3-7.9 1.5-2.3 3.6-4.2 5.9-5.9 2.3-1.6 4.8-3 7.4-4.3s5.2-2.6 7.8-3.8c5.2-2.4 10.5-4.6 15.8-6.8l.2.1.4.3.7.7c.5.5 1 .9 1.5 1.4 1 .9 2.1 1.8 3.1 2.6 2.2 1.6 4.4 3.1 6.8 4.4 4.8 2.5 10.2 3.9 15.6 3.9s10.8-1.5 15.7-3.9c4.7-2.4 9-5.6 12.8-9.2 5.2 2.1 10.4 4.4 15.6 6.7 2.6 1.2 5.3 2.4 7.8 3.7 2.6 1.3 5.1 2.6 7.4 4.2 2.3 1.6 4.5 3.5 6 5.8s2.2 5 2.4 7.9c.3 2.9.6 5.8.9 8.6l.7 8.1-12.5 1.4zm-100.5-7.3-.3-1.1-.4-1c-.9-2.8-2.3-5.4-3.8-7.9-1.6-2.5-3.4-4.8-5.5-6.8s-4.4-3.9-7-5.1c1.2.8 2.3 1.7 3.4 2.6 1.1.9 2.1 1.9 3.1 3 1.9 2.1 3.7 4.4 5.2 6.8.4.6.7 1.2 1.1 1.8.4.6.7 1.2 1 1.9.3.6.7 1.3 1 1.9.3.7.6 1.3.9 2l.4 1 .4 1 .7 2c.5 1.4.8 2.8 1.3 4.1-.3-1.4-.5-2.9-.9-4.3l-.6-1.9zm92.9-9.9c-1.5 2.5-2.9 5.1-3.8 7.9l-.4 1-.3 1.1-.6 2.1c-.3 1.4-.6 2.8-.9 4.3.5-1.4.8-2.8 1.3-4.1l.7-2 .4-1 .4-1c.3-.6.6-1.3.9-2 .3-.6.6-1.3 1-1.9.3-.6.6-1.3 1-1.9.4-.6.7-1.2 1.1-1.8 1.5-2.4 3.3-4.7 5.2-6.8.9-1.1 2-2.1 3.1-3 1.1-1 2.2-1.9 3.4-2.6-2.6 1.3-4.9 3.1-7 5.1-2.1 1.8-3.9 4.2-5.5 6.6z" fill="#852150" stroke-width="none" opacity="1"></path></g><g id="svga-group-head" transform="matrix(1,0,0,1,0,0)"><g id="svga-group-ears-left-move" transform="matrix(1,0,0,1,0,0)"><g id="svga-group-ears-left"><path id="SvgjsPath6191" d="M64.2 96.3c-.2-.3-3.1-4-5.5-6.3-2.5-2.3-3.2-2.2-4.4-.8s-2.7 8.5-2.3 11.7 3.3 8.2 4.9 11c1.6 2.8 3.1 6.3 4.8 6 1.8-.3 4.2-4.3 5.3-7.3 1.2-3 .6-10.3-2.8-14.3z" fill="#8c5537" stroke-width="none" opacity="1" stroke="none"></path><path id="SvgjsPath6192" d="M67.9 104.8c.1.8.2 1.6.2 2.4s0 1.6-.2 2.4l-.3 1.2c-.1.4-.3.7-.4 1-.3.7-.6 1.3-.9 2-.7 1.2-1.4 2.4-2.4 3.4-.5.5-1 1-1.7 1.2-.3.1-.8.1-1.2 0-.4-.2-.7-.4-1-.7-1.2-1.2-1.8-2.6-2.5-4s-1.4-2.7-2.1-4.1c-.7-1.4-1.4-2.8-2-4.2-.3-.7-.6-1.4-.9-2.2-.3-.7-.5-1.5-.6-2.3-.2-1.6 0-3.2.1-4.7.2-1.5.4-3 .8-4.5.2-.7.4-1.5.7-2.2.1-.2.2-.3.3-.5s.2-.4.3-.5c.2-.3.5-.5.8-.7s.7-.3 1.1-.3c.4.1.7.2 1.1.4.6.4 1.1.9 1.7 1.4 2 2.1 3.7 4.5 5.6 6.8 1.8 2.5 2.9 5.6 3.5 8.7zm-9.6-14.6c-1-.8-2.2-1.7-2.9-1.2-.2.1-.4.3-.6.6-.1.1-.2.2-.2.3-.1.1-.1.3-.2.4-.3.6-.5 1.2-.7 1.9-.4 1.3-.8 2.8-1.1 4.2-.3 1.4-.5 3-.4 4.4.1.7.3 1.5.5 2.2l.9 2.1c.6 1.4 1.4 2.7 2.2 4s1.6 2.6 2.3 3.9c.4.7.7 1.3 1.1 1.9.4.6.8 1.2 1.2 1.6s.8.6 1.2.4.9-.5 1.3-1c.8-.9 1.5-2 2.2-3.2l.9-1.8c.1-.3.3-.6.4-.9l.2-.4c0-.2.1-.3.1-.5.3-1.3.3-2.8.3-4.3-.1-1.5-.3-3-.8-4.5s-1.2-2.9-2.1-4c-1.7-2.2-3.7-4.4-5.8-6.1z" fill="#7d4425" stroke-width="none" opacity="1" stroke="none"></path><path id="SvgjsPath6193" d="M54.1 102.4c-.2-2.1-.4-7.4.8-9 2-2.7 5.6 6.1 6.5 8.8 0 .1.1.2.1.2.1.3-.1.7-.4.6-.4-.2-.8-.6-1.2-.8-1.1-.5-1.5.4-1.2 1.7.4 1.7 1.3 2.7 2.1 4 .1.2 0 .4-.2.3-1.5-.9-3.3-4.2-2.9-6.2.3-1.8 1.8-1.7 2.9-.8-.7-1.6-1.4-3.1-2.3-4.5-.6-.9-1.1-1.9-2-2-1.1-.2-.9.3-1.1 1.7-.8 4.6-.3 9.7 2.4 13.7.1.1 0 .2-.1.1-2-2.2-3.1-4.7-3.4-7.8z" fill="#6d3415" stroke-width="none" opacity="1" stroke="none"></path></g></g><g id="svga-group-ears-right-move" transform="matrix(1,0,0,1,0,0)"><g id="svga-group-ears-right"><path id="SvgjsPath6194" d="M135.8 96.3c.2-.3 3.1-4 5.5-6.3 2.5-2.3 3.2-2.2 4.4-.8s2.7 8.5 2.3 11.7-3.3 8.2-4.9 11c-1.6 2.8-3.1 6.3-4.8 6-1.8-.3-4.2-4.3-5.3-7.3-1.2-3-.6-10.3 2.8-14.3z" fill="#8c5537" stroke-width="none" opacity="1" stroke="none"></path><path id="SvgjsPath6195" d="M135.7 96.3c1.8-2.3 3.5-4.7 5.6-6.8.5-.5 1-1 1.7-1.4.3-.2.7-.4 1.1-.4.4-.1.8.1 1.1.3.3.2.6.5.8.7.1.1.2.3.3.5s.2.3.3.5c.3.7.5 1.4.7 2.2.4 1.5.6 3 .8 4.5.1 1.5.3 3.1.1 4.7-.1.8-.3 1.6-.6 2.3-.3.8-.6 1.5-.9 2.2-.6 1.4-1.3 2.8-2 4.2-.7 1.4-1.4 2.7-2.1 4.1-.7 1.4-1.4 2.8-2.5 4-.3.3-.6.6-1 .7s-.9.2-1.2 0c-.7-.2-1.2-.7-1.7-1.2-1-1-1.7-2.2-2.4-3.4-.3-.6-.6-1.3-.9-2-.1-.3-.3-.7-.4-1l-.3-1.2c-.1-.8-.2-1.6-.2-2.4s.1-1.6.2-2.4c.5-3.3 1.6-6.4 3.5-8.7zm.1.1c-.9 1.1-1.6 2.5-2.1 4s-.7 3-.8 4.5 0 3 .3 4.3c0 .2.1.3.1.5l.2.4c.1.3.3.6.4.9l.9 1.8c.6 1.2 1.4 2.3 2.2 3.2.4.4.9.8 1.3 1 .4.2.8 0 1.2-.4s.8-1 1.2-1.6.8-1.3 1.1-1.9c.7-1.3 1.6-2.6 2.3-3.9.8-1.3 1.5-2.6 2.2-4l.9-2.1c.3-.7.5-1.5.5-2.2.1-1.5-.1-3-.4-4.4-.3-1.4-.6-2.9-1.1-4.2-.2-.7-.5-1.3-.7-1.9-.1-.1-.1-.3-.2-.4-.1-.1-.1-.2-.2-.3l-.6-.6c-.7-.6-1.8.4-2.9 1.2-2 1.6-4 3.8-5.8 6.1z" fill="#7d4425" stroke-width="none" opacity="1" stroke="none"></path><path id="SvgjsPath6196" d="M145.9 102.4c.2-2.1.4-7.4-.8-9-2-2.7-5.6 6.1-6.5 8.8 0 .1-.1.2-.1.2-.1.3.1.7.4.6.4-.2.8-.6 1.2-.8 1.1-.5 1.5.4 1.2 1.7-.4 1.7-1.3 2.7-2.1 4-.1.2 0 .4.2.3 1.5-.9 3.3-4.2 2.9-6.2-.3-1.8-1.8-1.7-2.9-.8.7-1.6 1.4-3.1 2.3-4.5.6-.9 1.1-1.9 2-2 1.1-.2.9.3 1.1 1.7.8 4.6.3 9.7-2.4 13.7-.1.1 0 .2.1.1 2-2.2 3.1-4.7 3.4-7.8z" fill="#6d3415" stroke-width="none" opacity="1" stroke="none"></path></g></g><g id="svga-group-faceshape-wrap"><g id="svga-group-faceshape-single"><path id="SvgjsPath6223" d="M100.01 41.36C78.61 41.36 60.2 56.9 59 85.4c0 0 .2 20.8 2.8 34.8 1.5 8 4 11.7 10.5 17 6.5 5.4 18.69 15.64 27.69 15.64s21.21-10.24 27.71-15.64 9-9 10.5-17c2.6-14 2.8-34.8 2.8-34.8-1.2-28.4-19.59-44.04-40.99-44.04z" fill="#8c5537" stroke-width="none" opacity="1" stroke="none"></path><path id="SvgjsPath6224" d="M100 41.3c-21.4 0-39.8 15.6-41 44.1 0 0 .2 20.8 2.8 34.8 1.5 8 4 11.7 10.5 17C78.8 142.6 91 153 100 153s21.2-10.4 27.7-15.8 9-9 10.5-17c2.6-14 2.8-34.8 2.8-34.8-1.2-28.4-19.6-44.1-41-44.1zm35.5 26.6c.2.7.5 1.5.7 2.2l.3 1.1c.1.4.2.8.3 1.1l.3 1.1.2 1.1.2 1.1.2 1.1.2 1.1.1 1.2.1 1.2c0 .4.1.8.1 1.2.1.8.1 1.6.2 2.3l.1 1.1V86c-.1 3.2-.2 6.4-.4 9.6-.3 6.4-.8 12.8-1.6 19.1l-.3 2.4-.4 2.3c-.3 1.5-.6 3-1 4.4s-.9 2.7-1.6 4c-.7 1.2-1.5 2.4-2.5 3.5s-2.1 2.2-3.3 3.2-2.4 2.1-3.6 3.1c-2.4 2.1-4.9 4.1-7.4 6-1.3 1-2.5 1.9-3.9 2.7-1.3.9-2.6 1.7-4 2.4s-2.8 1.4-4.2 1.9c-1.4.5-2.9.8-4.3.9-1.4 0-2.9-.2-4.4-.6-1.5-.4-2.9-1-4.4-1.7-1.4-.7-2.8-1.4-4.2-2.2-1.4-.8-2.7-1.7-4-2.6-1.3-.9-2.6-1.9-3.9-2.8-1.3-1-2.5-2-3.8-3-2.5-2.1-5-4-7.1-6.4-1-1.2-2-2.4-2.7-3.8-.7-1.4-1.3-2.8-1.7-4.3-.4-1.5-.7-3.1-.9-4.6l-.3-2.4-.2-2.4c-.6-6.4-.8-12.8-1-19.2l-.1-4.8-.1-4.8v-1.2l.1-1.1c0-.8.1-1.5.2-2.3 0-.4.1-.8.1-1.2l.2-1.2.2-1.2.2-1.1.2-1.1.2-1.1.2-1.1.3-1.1c.1-.4.2-.8.3-1.1l.3-1.1c.2-.7.5-1.5.7-2.2 1-2.9 2.3-5.8 3.9-8.4 1.6-2.7 3.5-5.2 5.7-7.4s4.7-4.2 7.5-5.8c1.4-.8 2.8-1.5 4.3-2.1.7-.3 1.5-.6 2.2-.8.4-.1.8-.2 1.1-.3l1.2-.3 1.2-.3.6-.1.6-.1L94 42c.4-.1.8-.1 1.2-.2a38.663 38.663 0 0 1 9.6 0c.4.1.8.1 1.2.2l1.2.2.6.1.6.1 1.2.3 1.2.3c.4.1.8.2 1.1.3.8.3 1.5.5 2.2.8 1.5.6 2.9 1.3 4.3 2.1 2.8 1.6 5.3 3.5 7.5 5.8 2.2 2.2 4.1 4.7 5.7 7.4 1.6 2.8 2.9 5.6 3.9 8.5z" fill="#5e2709" stroke-width="none" opacity="1" stroke="none"></path></g></g><g id="svga-group-mouth-single-move" transform="matrix(1,0,0,1,0,0)"><g id="svga-group-mouth-single"><path id="SvgjsPath9106" d="M90 128.1s2 2.6 4 3.8 9.4 1.3 13.4-.2 7.5-6.6 8.1-7.8c0 0-2.9 1.9-7.1 1.5-4.3-.3-13.7.8-15.6 1.6s-2.8 1.1-2.8 1.1z" fill="#904539" stroke-width="none" opacity="1" transform="translate(0 3)" stroke="none"></path><path id="SvgjsPath9107" d="M117.2 121.6c-.5-.4-1-.6-1.6-.4-.4.1-.4.7-.1.8.1.1.2.1.3.2l-.6.6c-.7.8-2.3 2.2-5.3.8-3-1.4-5.1-1.8-7.1-.5s-2.7.9-4.6.2c-1.9-.6-4.3.4-5.5 1.7-1.2 1.3-2.2 2.6-4.1 2s-.8.5-.8.5c.2.1 1.5 1.1 2.5 1.4 1.1.2 2.1-.5 4.5-1.2s8.1-1.2 11.9-1.1c5.4.2 6.8-.6 8.3-1.8.7-.6 1.2-1.1 1.5-1.6.1.2.2.4.4.5.3.2.8.1.9-.3.2-.8-.2-1.4-.6-1.8z" fill="#883b2f" stroke-width="none" opacity="1" transform="translate(0 3)" stroke="none"></path><path id="SvgjsPath9108" d="M95.7 129.5c3.4 0 7.4.1 10.8-.9.5-.1.5-.8 0-1-3.4-1-7.7-.1-10.9 1.2-.3.2-.3.7.1.7z" fill="#984f44" stroke-width="none" opacity="1" transform="translate(0 3)" stroke="none"></path></g></g><g id="svga-group-eyes-left-move" transform="matrix(1,0,0,1,0,0)"><g id="svga-group-eyes-left"><g id="svga-group-eyesback-left"><path id="SvgjsPath6606" d="M90.9 101.3s-.3-2.5-1-3.8-3.7-4.4-7-5c-4.9-1-9.3 1.7-9.3 1.7s0 2.4 1.5 4.1c1.4 1.7 3.9 2.6 4.9 2.7s4.6.3 6.5 0c1.3-.2 2.8-.2 3.4 0 .5.2 1 .3 1 .3z" fill="#ffffff" stroke-width="none" opacity="1"></path></g><g id="svga-group-eyesiriswrapper-left" transform="matrix(1,0,0,1,0,0)"><g id="svga-group-eyesiriscontrol-left" transform="matrix(1,0,0,1,0,0)"><g id="svga-group-eyesiris-left"><path id="SvgjsPath6258" d="M82 91.5c2.7 0 4.9 2.2 4.9 4.9s-2.2 4.9-4.9 4.9-4.9-2.2-4.9-4.9 2.2-4.9 4.9-4.9z" fill="#3d110d" stroke-width="none" opacity="1" stroke="none"></path><path id="SvgjsPath6259" d="M82 93.8c1.4 0 2.6 1.2 2.6 2.6S83.4 99 82 99s-2.6-1.2-2.6-2.6 1.2-2.6 2.6-2.6z" fill="#000000" stroke-width="none" opacity="1"></path><path id="SvgjsPath6260" d="m81.3 94.3-.5-.5c-.2-.2-.4-.3-.7-.3s-.5.1-.7.3c-.2.2-.3.4-.3.7s.1.5.3.7l.5.5c.2.2.4.3.7.3.2 0 .5-.1.7-.3.4-.5.4-1 0-1.4zm2.5 4.4c.8 0 .8-1.3 0-1.3s-.9 1.3 0 1.3z" fill="#ffffff" stroke-width="none" opacity="1"></path></g></g></g><g id="svga-group-eyesfront-left"><path id="SvgjsPath6614" d="M70.73 98.03c0 6.9 4.93 12.5 11.02 12.5s11.02-5.6 11.02-12.5-4.93-12.5-11.02-12.5-11.02 5.59-11.02 12.5zm2.88-3.78s4.42-2.71 9.34-1.75c3.29.64 6.2 3.74 6.95 5.03.75 1.28 1.03 3.82 1.03 3.82s-.53-.14-1.11-.32c-.57-.18-2.05-.19-3.39.04-1.89.32-5.46.18-6.45.04-1-.14-3.49-1.07-4.92-2.75-1.41-1.69-1.45-4.11-1.45-4.11z" fill="#8c5537" stroke-width="none" opacity="1" stroke="none"></path><path id="SvgjsPath6615" d="M73.27 94.64c-.1.42-.12.84-.06 1.25-.57-.03-1.21.05-1.59.44-.14.14.01.33.18.3.3-.05.58-.2.88-.27.21-.05.42-.06.63-.05.06.21.13.42.22.63-.18.06-.35.14-.5.21-.38.17-.75.42-.99.76-.11.15.09.28.22.22.35-.16.68-.38 1.03-.55.15-.07.32-.12.49-.18.16.28.35.54.56.8-.41.24-.78.58-.9 1.03-.03.1.09.21.19.15.36-.24.65-.57.96-.88 1.11 1.22 2.67 2.16 3.92 2.57 1.88.62 3.93.72 5.89.62 1.85-.09 4.72-1.14 6.43-.21.07.04.13.02.17-.02l.03-.03c.01-.02.02-.04.02-.06 0-.01.01-.01.01-.03-.1-4.06-2.64-7.49-6.4-8.97-2.08-.82-4.37-1.02-6.58-.69-2.59.39-4.87 1.66-7.54 1.44-.23-.02-.34.3-.18.44.9.88 1.89 1.13 2.91 1.08zm.67-.07c1.99-.32 4.11-1.54 6.09-1.68 5.13-.36 10.05 3 10.7 8.24-2.39-.82-5.13-.1-7.59-.15-2.01-.04-4.14-.32-5.91-1.34-2.21-1.28-2.61-2.93-3.29-5.07z" fill="#000000" stroke-width="none" opacity="1" stroke="none"></path></g></g></g><g id="svga-group-eyes-right-move" transform="matrix(1,0,0,1,0,0)"><g id="svga-group-eyes-right"><g id="svga-group-eyesback-right"><path id="SvgjsPath6607" d="M109.1 101.3s.3-2.5 1-3.8 3.7-4.4 7-5c4.9-1 9.3 1.7 9.3 1.7s0 2.4-1.5 4.1c-1.4 1.7-3.9 2.6-4.9 2.7s-4.6.3-6.5 0c-1.3-.2-2.8-.2-3.4 0-.5.2-1 .3-1 .3z" fill="#ffffff" stroke-width="none" opacity="1"></path></g><g id="svga-group-eyesiriswrapper-right" transform="matrix(1,0,0,1,0,0)"><g id="svga-group-eyesiriscontrol-right" transform="matrix(1,0,0,1,0,0)"><g id="svga-group-eyesiris-right"><path id="SvgjsPath6261" d="M118 91.5c2.7 0 4.9 2.2 4.9 4.9s-2.2 4.9-4.9 4.9-4.9-2.2-4.9-4.9 2.2-4.9 4.9-4.9z" fill="#3d110d" stroke-width="none" opacity="1" stroke="none"></path><path id="SvgjsPath6262" d="M118 93.8c1.4 0 2.6 1.2 2.6 2.6S119.4 99 118 99s-2.6-1.2-2.6-2.6 1.2-2.6 2.6-2.6z" fill="#000000" stroke-width="none" opacity="1"></path><path id="SvgjsPath6263" d="m117.4 94.3-.5-.5c-.2-.2-.4-.3-.7-.3s-.5.1-.7.3c-.2.2-.3.4-.3.7s.1.5.3.7l.5.5c.2.2.4.3.7.3.2 0 .5-.1.7-.3.3-.5.4-1 0-1.4zm2.4 4.4c.8 0 .8-1.3 0-1.3s-.8 1.3 0 1.3z" fill="#ffffff" stroke-width="none" opacity="1"></path></g></g></g><g id="svga-group-eyesfront-right"><path id="SvgjsPath6616" d="M118.26 85.53c-6.08 0-11.02 5.6-11.02 12.5s4.93 12.5 11.02 12.5 11.02-5.6 11.02-12.5-4.94-12.5-11.02-12.5zm6.67 12.82c-1.43 1.68-3.92 2.6-4.92 2.75-1 .14-4.56.29-6.45-.04-1.34-.23-2.82-.21-3.39-.04-.57.18-1.11.32-1.11.32s.29-2.53 1.03-3.82c.75-1.28 3.66-4.38 6.95-5.03 4.92-.96 9.34 1.75 9.34 1.75s-.03 2.43-1.45 4.11z" fill="#8c5537" stroke-width="none" opacity="1" stroke="none"></path><path id="SvgjsPath6619" d="M129.64 93.58c.15-.15.04-.46-.18-.44-2.68.22-4.96-1.05-7.54-1.44-2.21-.33-4.49-.13-6.58.69-3.76 1.48-6.31 4.91-6.4 8.97 0 .01.01.02.01.03 0 .02.01.04.02.06l.03.03c.04.04.1.06.17.02 1.71-.93 4.58.11 6.43.21 1.96.1 4.02-.01 5.89-.62 1.25-.41 2.81-1.35 3.92-2.57.31.31.6.64.96.88.1.06.22-.04.19-.15-.12-.45-.5-.79-.9-1.03.21-.26.4-.52.56-.8.17.06.34.11.49.18.35.17.68.39 1.03.55.13.06.33-.07.22-.22-.25-.34-.61-.59-.99-.76-.15-.07-.32-.15-.5-.21.09-.21.17-.42.22-.63.21 0 .42.01.63.05.3.07.58.21.88.27.17.03.31-.16.18-.3-.38-.39-1.02-.48-1.59-.44.06-.41.04-.83-.06-1.25 1.02.03 2.01-.22 2.91-1.08zm-6.87 6.06c-1.77 1.03-3.9 1.3-5.91 1.34-2.46.05-5.21-.67-7.59.15.65-5.24 5.56-8.6 10.7-8.24 1.98.14 4.1 1.36 6.09 1.68-.68 2.14-1.08 3.79-3.29 5.07z" fill="#000000" stroke-width="none" opacity="1" stroke="none"></path></g></g></g><g id="svga-group-facehighlight-single"></g><g id="svga-group-eyebrows-left-move" transform="matrix(1,0,0,1,0,0)"><g id="svga-group-eyebrows-left-rotate" transform="matrix(1,1.7453292519943295e-9,-1.7453292519943295e-9,1,1.5003287501258455e-7,-1.402671330197336e-7)"><g id="svga-group-eyebrows-left"><path id="SvgjsPath7041" d="M72.9 84.2c.1-.2.4-.3.6-.4.2-.1.4-.2.6-.2.4-.2.8-.4 1.2-.5.5-.1 1.2-.5 1.7-.2 1.6-.6 3.7-.2 5.1.6 1.9.2 3.9.8 5.3 1.8.1.1.2.2.2.3.3.1.5.2.8.3 1 .4 2.1.7 3.1 1.2.1 0 .2.1.3.1.3.1.4.7.2.8-.1.1-.1.2-.2.3-.8.6-1.8.2-2.6-.1-.7-.3-1.5-.6-2-1.2-.8-.3-1.4-.7-2.1-1.1-.1 0-.2-.1-.3-.1-1.2-.2-2.5-.7-3.7-1.3-.7-.1-1.3-.3-2-.3-.9-.1-1.8.2-2.8-.1h-.1c-.2.1-.4.1-.6.2-.8.2-1.5.4-2.3.4-.1 0-.2-.1-.2-.2H73s-.2-.1-.1-.3z" fill="#2a232b" stroke-width="none" opacity="1"></path><path id="SvgjsPath7042" d="M77.4 82.3c3.1-.2 6.2 1.5 9 2.6 1.7.7 5.2.9 5.9 3 .1.3-.3.4-.5.2-.9-1.2-2.4-1.4-3.8-1.8-1.2-.4-2.3-.8-3.5-1.3-2.4-1-4.8-1.6-7.3-2.2-.1-.1 0-.4.2-.5z" fill="#3a353a" stroke-width="none" opacity="1"></path><path id="SvgjsPath7043" d="M93.3 87.9c.3-1.4-1.8-1.9-2.8-2.3-2.4-1-4.9-2.1-7.4-2.8-1.5-.4-3.1-.7-4.6-.7-1.2 0-2.3.1-3.5.5-2 .6-3.9 1.8-5.6 3.1-.9.5-1.8 1.2-2.5 1.9-.1.1 0 .3.2.2 0 0 .1 0 .1-.1 0 .1.1.1.2.1 1.5-.7 2.8-1.6 4.3-2.2 1.5-.6 3.1-1 4.7-1.1h.7c1.9 0 3.7.4 5.4 1.2 2.4 1.1 4.6 2.6 7 3.5.4.2.9.2 1.4.2 1.1 0 2.2-.4 2.4-1.5zM78.5 83c1.6 0 3.2.4 4.8.9 2 .7 4 1.6 6 2.4.4.2 2.4.7 2.6 1.2.2.6-.2.8-.8.9-.3 0-.6-.1-.8-.1-.6-.2-1.2-.6-1.7-.9-3.1-1.6-6.3-3.5-9.8-3.7h-1c-1.1 0-2.3.1-3.5.3.5-.2 1-.4 1.6-.6.8-.3 1.7-.4 2.6-.4z" fill="#1b141c" stroke-width="none" opacity="1"></path></g></g></g><g id="svga-group-eyebrows-right-move" transform="matrix(1,0,0,1,0,0)"><g id="svga-group-eyebrows-right-rotate" transform="matrix(1,1.7453292519943295e-9,-1.7453292519943295e-9,1,1.5032446754048578e-7,-2.0871141259704018e-7)"><g id="svga-group-eyebrows-right"><path id="SvgjsPath7044" d="M127.1 84.2c-.1-.2-.4-.3-.6-.4-.2-.1-.4-.2-.6-.2-.4-.2-.8-.4-1.2-.5-.5-.1-1.2-.5-1.7-.2-1.6-.6-3.7-.2-5.1.6-1.9.2-3.9.8-5.3 1.8-.1.1-.2.2-.2.3-.3.1-.5.2-.8.3-1 .4-2.1.7-3.1 1.2-.1 0-.2.1-.3.1-.3.1-.4.7-.2.8.1.1.1.2.2.3.8.6 1.8.2 2.6-.1.7-.3 1.5-.6 2-1.2.8-.3 1.4-.7 2.1-1.1.1 0 .2-.1.3-.1 1.2-.2 2.5-.7 3.7-1.3.7-.1 1.3-.3 2-.3.9-.1 1.8.2 2.8-.1h.1c.2.1.4.1.6.2.8.2 1.5.4 2.3.4.1 0 .2-.1.2-.2h.1s.2-.1.1-.3z" fill="#2a232b" stroke-width="none" opacity="1"></path><path id="SvgjsPath7045" d="M122.6 82.3c-3.1-.2-6.2 1.5-9 2.6-1.7.7-5.2.9-5.9 3-.1.3.3.4.5.2.9-1.2 2.4-1.4 3.8-1.8 1.2-.4 2.3-.8 3.5-1.3 2.4-1 4.8-1.6 7.3-2.2.1-.1 0-.4-.2-.5z" fill="#3a353a" stroke-width="none" opacity="1"></path><path id="SvgjsPath7046" d="M109 89.3c.5 0 1-.1 1.4-.2 2.4-.9 4.7-2.4 7-3.5 1.8-.8 3.6-1.2 5.4-1.2h.7c1.6.1 3.2.5 4.6 1.1 1.5.6 2.9 1.6 4.3 2.2.1 0 .2 0 .2-.1 0 0 .1 0 .1.1.2.1.3-.1.2-.2-.7-.7-1.6-1.4-2.5-1.9-1.7-1.3-3.6-2.4-5.6-3.1-1.1-.4-2.3-.5-3.5-.5-1.6 0-3.1.3-4.6.7-2.5.7-5 1.8-7.4 2.8-.9.4-3.1.9-2.8 2.3.4 1.2 1.5 1.6 2.5 1.5zm15.2-5.9c.5.2 1.1.3 1.6.6-1.2-.2-2.3-.3-3.5-.3h-1c-3.5.2-6.8 2.2-9.8 3.7-.6.3-1.1.7-1.7.9-.2.1-.5.1-.8.1-.5 0-1-.2-.8-.9.2-.5 2.2-1 2.6-1.2 2-.8 4-1.7 6-2.4 1.6-.5 3.2-.9 4.8-.9.8 0 1.7.1 2.6.4z" fill="#1b141c" stroke-width="none" opacity="1"></path></g></g></g><g id="svga-group-nose-single-move" transform="matrix(1,0,0,1,0,0)"><g id="svga-group-nose-single"><path id="SvgjsPath6336" d="M97.72 89.37c-.8 3.33-.91 6.89-1.27 10.29-.38 3.64-1.08 7.4-1.03 11.06 0 .29.45.37.52.07.74-3.34.83-6.91 1.18-10.31.37-3.64 1.05-7.41.93-11.06 0-.19-.28-.24-.33-.05z" fill="#5e2709" stroke-width="none" opacity="1" transform="translate(0 2)" stroke="none"></path><path id="SvgjsPath6337" d="M94.71 108.8c-.98 1.31-1.8 2.73-2.52 4.2-.46.95-1.04 2.07-.73 3.16.5 1.8 2.79 2.36 4.28 1.51.44-.26.24-.95-.26-.95-.87-.01-1.89.27-2.58-.47-.84-.89-.01-2.5.36-3.4.55-1.32 1.22-2.59 1.74-3.92.07-.19-.19-.26-.29-.13z" fill="#5e2709" stroke-width="none" opacity="1" transform="translate(0 2)" stroke="none"></path><path id="SvgjsPath6338" d="M94.57 116.21c2.7-.2 3.21 3.2 5.78 3.28 2.2.07 2.37-3.24 4.46-3.14.24.01.32-.33.12-.45-2.37-1.4-2.81 2.72-4.99 2.46-1.29-.15-2.21-2.05-3.37-2.6-.79-.37-1.36-.34-2.13.01-.19.11-.09.46.13.44z" fill="#5e2709" stroke-width="none" opacity="1" transform="translate(0 2)" stroke="none"></path><path id="SvgjsPath6339" d="M104.07 117.75c1.78.4 3.85-.15 4.27-2.13.21-.99-.12-1.97-.64-2.81-.84-1.37-1.93-2.53-2.73-3.95-.13-.24-.47-.12-.48.13-.1 1.59 1.08 2.69 1.92 3.92.78 1.13 1.45 2.69.14 3.81-.6.51-1.74.42-2.48.56-.24.05-.23.42 0 .47z" fill="#5e2709" stroke-width="none" opacity="1" transform="translate(0 2)" stroke="none"></path><path id="SvgjsPath6340" d="M102.32 112.41c-.39-.7-1.4-.81-1.96-.25-.05.05-.23.28-.28.34-.06.08-.19.25-.21.28-.06.1-.12.2-.17.3l-.11.26c0-.01-.01.01-.03.05-.06.06-.12.13-.17.19-.17.18-.34.36-.48.57-.4.63-.08 1.35.46 1.75.83.62 2.03.12 2.61-.58.7-.84.89-1.92.34-2.91z" fill="#945e41" stroke-width="none" opacity="1" transform="translate(0 2)" stroke="none"></path></g></g><g id="svga-group-hair-front"><path id="SvgjsPath8700" d="M160 89.7c-4.1-18.8-35.3-51.9-48.6-51.9-10.9 0-26.6 2.6-28.9 13.2-1.4-.3-3.6-.4-6.3 1.3-4.9 2.9-15.5 12.8-15.4 22.5.1 9.7 9.1 12.4 9.1 12.4-1.2-10.7-1.6-14.3 1.4-20.3s11.8-7.8 11.8-7.8c.3 1.1 8-9.7 18.2-10.5 10.5-.8 13.7 5.3 12.5 13s1.2 12.1 6.2 14.5c5 2.3 7.7-1.8 11.8 1.8 4.1 3.5 7.9 10.3 4.4 23.2-3.5 12.9-4.4 21.5 1.5 24.1s26.4-16.6 22.3-35.5z" fill="#1b141c" stroke-width="none" opacity="1" stroke="none"></path><path id="SvgjsPath8701" d="M180.6 133.3c-3.8-2.6-6.1-2.9-3.5-13 .2-1 .4-1.8.5-2.7 1.5-1.8 2.7-3.7 2.6-5.8-.2-5.3-13.1-7.7-14.3-10.8-1.2-3.1-3.1-6.7 1.9-18.6s1.9-23.2-11.5-25.6-6.9-6.7-10.5-13.9c-3.6-7.2-15.8-16.5-27.2-13.9-11.5 2.6-10-6.7-23.9-4.8s-8.6 6.9-14.6 9.8-7.9 2.2-9.6 5.3c-1.7 3.1-1.7 5.5-.5 8.4 0 0-4.5-5-14.3-1.9S30.6 58.1 37.3 69.3s5.5 11.5-5.7 20.8-6 16.7 2.6 23.2 6.9 9.8-1.7 15.3-11.7 18.6 1 26.3 13.1 12.9 12 18.9c-1.2 6 2.4 16.5 23.4 16.5 0 0-9.3-3.6-5.7-11.7s7.4-10.5 0-19.6-10.8-16.2-6.5-23.2 13.6-7.6 6.2-16.5-8.6-12.7-.7-18.9c7.9-6.2 11.5-8.8 5.7-18.6C62.2 72 70.5 58.3 83 59.3c0 0 2.2-7.4 11.5-12.2s24.6-4.1 24.4 4.8c-.2 8.8-6 16.5-.7 24.4 5.3 7.9 13.1 2.2 22.5 1.9 9.3-.2 14.8 11 3.6 23.9s-11.7 18.2-8.4 23.7 11.7.5 14.8 5.3c3.1 4.8-11.9 6.9-12.9 13.1s.7 8.8 7.2 11c6.4 2.1 8.4 11 .5 13.9-7.7 2.8-6.9 13.7-1 18.8l.3.3s-1.8-4.1.3-7.3c2-3.2 12.7-1.7 22.2-1.4 9.5.3 7.8-5.8 4.3-17s4.6-12.7 7.2-15.6c2.4-3 5.6-11 1.8-13.6z" fill="#2a232b" stroke-width="none" opacity="1" stroke="none"></path><path id="SvgjsPath8702" d="M73.9 53.6s-15.1-4.2-20.8 8.3 4.9 17 6.4 23.8C61 92.5 44.8 96.2 41 102.3c-3.8 6-2.3 12.8 9.4 19.3s-3 12.8-6 16.6 3 7.9 6.8 13.2c3.8 5.3 3 12.1 1.1 16.2s-1.9 7.2 1.5 9.8c0 0-3.4-2.6 1.5-10.9s-6.4-19.6-7.5-24.5c-1.1-4.9 9.8-10.9 11-14.7s-8.3-5.7-14.4-11.7c-6-6-3-12.8.8-14.7S63 93 64.1 89.6c1.1-3.4-9.8-12.1-9.8-18.5s.3-17.9 19.6-17.5zm3-3.1s1.9-7.5 9.4-11.7c7.6-4.2 29.8-6 37 0 7.2 6-3.4 19.6-.8 27.9s12.8 3.8 21.5 3c8.7-.8 17.4 3.8 15.5 14.7s-23 24.2-18.1 32.5c4.9 8.3 20.8-1.5 21.9 6.4 1.1 7.9-21.8 12.7-16.8 23.7s15.7 3.9 13.4 12.2-6 9.1-10.2 11.7c-4.1 2.6-3.8 5.7-3.8 5.7s.8-4.9 8.7-6.4 12.1-11.3 9.8-17.8-.5-11.1 3.6-19 8-15.5 3.5-17.7-16.9-.6-16.5-7.4c.4-6.8 7.9-21.5 8.3-29.1.4-7.6-.4-9.1-10.9-12.8-10.6-3.8-15.5-3-15.1-14 .4-11-7.9-17-14.3-18.9s-20.8-1.9-33.6 1.5c-12.9 3.5-12.5 15.5-12.5 15.5zm-7.7-.4s-10.4-.3-17 3.6-7.3 15.4.2 24.8-6.2 13-11 15.2-9.9 10.5-6.5 14.9c3.4 4.4 11.2 11.5 14.1 14.6 2.9 3.1-2.4 7.8-7.6 11.5s-6.7 7.8-3.9 11.2c2.8 3.4 11.5 7.6 12.6 12.6s-.3 8.6-.3 8.6 1-8.3-2.9-11c-3.9-2.8-15.6-4.5-16.5-13.6s11.4-11 13.4-15.1-2.3-10.4-4.7-12.2c-2.4-1.8-10.2-7.9-10.5-13.3-.3-5.3 4-10.5 9.7-13.1C44 86.2 48.2 85.7 49 82c.8-3.7-6.5-9.4-7.5-14.1-1-4.7-.8-11.5 6.3-15.4s12.7-3.7 21.4-2.4z" fill="#1b141c" stroke-width="none" opacity="1" stroke="none"></path><path id="SvgjsPath8703" d="M81.6 54.5s3.5-11.1 12.7-15.2 23.1-3.8 27.6 1 .4 13-1.5 17.6-4.7 11.8-1.1 15.2c3.6 3.5 10.4 2.6 14.9.8s16.7-4.1 21.4 2-.9 16.6-6.2 22.5c-5.3 5.9-10.7 11.8-10.1 16.9.6 5.1 5.7 6.5 15.5 6.9 9.8.4 3.6 6.9-7.4 15.8s2 16 2 16-7.1-1.7-7.7-7.2 3-8.6 7.1-11.4 10.7-8.6 9.3-10.4c-1.4-1.8-14.8 2.3-18.7-.4s-4.5-5.9-2.1-12.8 11.9-13.9 14.2-18.4 6.3-12.8 2.7-16.4-16.7-1.1-24.4 1.2-13.1-2.7-13.1-6.6-.9-3.9 3.6-15.8-1.7-15.7-5.9-16.6-21.7-3.5-32.8 15.3zm-5 3.9s-11.3 2.1-13 9.3 2.7 15.5 4.5 19.6c1.8 4.1-6 8.9-10.5 13s-6.9 7.8-3.9 12.5 10.2 10.1 9.5 13c-.8 2.9-3.8 4.5-3.8 4.5s4.4-4.8.6-7.7c-3.8-2.9-13.9-6.6-13.3-13.9.6-7.2 7.1-8.6 11.9-12.1s8.1-3.6 8.1-8.3-6-9-8-15.8c-1.8-6.7.7-11.8 17.9-14.1zm55.6-22.7s5.6 1 8 8.8.2 10.7 3.4 14.1 14.2 3 18 6.3c3.7 3.2 5.3 12.9 1.7 23.6 0 0 5.6-8.8 4.6-16.8s-6.3-8.5-17.6-12.4-5.3-10.2-8.5-16.8-9.6-6.8-9.6-6.8zm41 82.2c-1.9-3.3-6.1-3.6-9.5-3.6-4.7 0-9.5.4-11.3-5.3-1.5-4.7 1.4-9.2 3.3-13.3 3.5-7.4 9.7-19.5.3-25-4-2.3-8.6-2.3-13-1.7-3.7.6-7.8 2.1-11.6 1.7-7.6-.7-6.7-7.9-4.9-13.1.1-.2-.2-.3-.3-.1-1.5 3.4-3.1 7.7-.8 11.2 2.3 3.4 6.9 3.1 10.4 2.6 7-.9 16.4-3.9 22 2.4 5.9 6.7-1.9 19.2-4.8 25.7-1.6 3.7-3 8-.9 11.8 2 3.8 6.3 4 10.1 4.2 5 .1 11.9 1.2 9.9 8.6-.9 3.3-3.1 6.4-5 9.1-3.3 4.9-6.8 9.9-6 16.1 0 .4.6.4.6 0 .2-8.4 5.7-13.6 9.7-20.3 1.8-3.1 3.9-7.5 1.8-11zm-45.7-83.4c-5.6-3.4-10.6-2.4-16.8-2.5-6.1 0-10-6.2-16.1-5-2 .4-3.6 1.4-5.1 2.8-1.2 1.1-1.8 2.8-2.9 4-1.8 1.7-3.9 2.2-6 3.2-3.2 1.5-6.3 3.9-5.2 7.8.1.3.6.2.5-.1-.4-2.4 1.7-5.2 3.7-6.4 1.2-.7 2.6-1 3.9-1.6 1.4-.6 2.7-1.2 3.8-2.2 1.6-1.4 2.4-3.4 4.2-4.7 3.8-2.8 7.4-1.6 11.2.6 3.1 1.8 5.4 2.8 9 2.7 5.7-.2 10.4-.2 15.7 2 .1 0 .3-.5.1-.6zM63.9 53.2c-7.4 1.3-15 5.7-16.2 13.8-.5 3.2.4 6.2 2.1 8.9 3 4.7 11.1 8.9 7.2 15.4-4.5 7.3-17.1 5.7-20 14.6-2.5 7.3 4.5 13.1 9.9 16.5.2.1.4-.2.2-.3-3.6-2.9-7.9-5.8-9.2-10.5-1.9-6.7 3.5-10.4 8.8-12.5 4.9-1.9 10.6-3.6 12.5-9.1 2-5.7-3.1-8.7-6.4-12.4-4.1-4.5-5.7-10.1-2.3-15.6 3-4.9 8.3-7 13.5-8.5.1-.1.1-.3-.1-.3zm-8-4.3c-6.3 2.2-12.8 5.6-15.1 12.3-1 3-1 6 .3 8.9 2.1 4.8 6.8 8.2 5.3 14.2 0 .2.2.2.3.1 2.1-5.3-1.8-8.9-4.2-13.3-5.8-10.6 5-18.3 13.5-21.8.3-.1.2-.5-.1-.4zM174 111.4c-1.3-2-3.3-3.3-5.4-4.4-3-1.5-6.8-3.1-6.7-7.2 0-.3-.4-.4-.5-.1-.4 2.4.8 4.3 2.6 5.8 1.5 1.1 3.2 1.7 4.8 2.6 1.8 1 3.1 2.3 4.6 3.6.4.4.8.1.6-.3zm-3.6 36.2c-2.9.6-4.5 2.9-5.1 5.7-1.3 6.1 2.9 12.1-2.6 17.3-5.3 5-20.8 1.5-20.5 12.1 0 .2.3.2.3 0 .5-10.5 16.6-5.6 22.1-12.2 1.7-2.1 2.5-4.6 2.5-7.2.1-4.9-3.2-12.4 3.5-14.8.4-.3.3-1-.2-.9zM62.8 161.9c-.9-3-2.6-5.7-4.6-8.2-3.6-4.4-10.4-9.6-6-16 .2-.2-.2-.6-.4-.3-6.3 7 3.1 13.9 6.8 19.2 1.8 2.6 3.7 6 3.5 9.2-.2 3.9-3.1 6.1-4.5 9.4-1.3 3.2-1.2 6.4.3 9.4.1.3.6.1.5-.2-1-3.6-1-6.7.9-10.1 1-1.8 2.5-3.4 3.3-5.3 1-2.3 1-4.6.2-7.1zM55 183.1c-4.9-4.2-6.2-9.2-5-15.5.6-3.3 1.7-6.6 1-9.9-.4-2.1-1.4-3.8-2.9-5.3-3.3-3.2-12-5.7-8.5-12.5.1-.2-.2-.4-.4-.2-1.7 2.6-1.3 5.2.6 7.6 3.7 4.7 10 5.3 10.2 12.6.1 5.1-2.5 10-1.4 15.2.8 3.6 2.8 6.5 5.9 8.5.4.2.7-.2.5-.5z" fill="#3a353a" stroke-width="none" opacity="1" stroke="none"></path></g><g id="svga-group-glasses-single-move" transform="matrix(1,0,0,1,0,0)"><g id="svga-group-glasses-single"></g></g></g></g></g><rect id="svga-credit-rect" width="200" height="15" x="0" y="185" fill="#ecf0f1" opacity="0.5" style="display: none;"></rect><text id="svga-credit-text" font-family="Avenir Next, Roboto, Helvetica, Arial, sans-serif" font-size="10px" text-anchor="start" font-weight="400" size="10px" anchor="start" weight="400" fill="#333333" x="33.402061462402344" y="182.71133995056152" style="display: none;"><tspan id="SvgjsTspan6173" dy="13" x="33.402061462402344">Created on AvatarMaker.com</tspan></text></g><defs id="SvgjsDefs6125"><linearGradient id="SvgjsLinearGradient8125" x1="80.965" y1="115.5409" x2="80.965" y2="91.2475" gradientTransform="matrix(1 0 0 -1 0 202)" gradientUnits="userSpaceOnUse" class="svga-on-canvas-glasses-gradient-single-0-null"><stop id="SvgjsStop8126" stop-opacity="1" stop-color="#899ba1" offset="0" ></stop><stop id="SvgjsStop8127" stop-opacity="0.6554" stop-color="#7490b3" offset="0.3446" ></stop><stop id="SvgjsStop8128" stop-opacity="0.2966" stop-color="#6589c0" offset="0.7034" ></stop><stop id="SvgjsStop8129" stop-opacity="0" stop-color="#6086c4" offset="1" ></stop></linearGradient><linearGradient id="SvgjsLinearGradient8131" x1="-1737.0349" y1="115.5409" x2="-1737.0349" y2="91.2475" gradientTransform="matrix(-1 0 0 -1 -1618 202)" gradientUnits="userSpaceOnUse" class="svga-on-canvas-glasses-gradient-single-1-null"><stop id="SvgjsStop8132" stop-opacity="1" stop-color="#899ba1" offset="0" ></stop><stop id="SvgjsStop8133" stop-opacity="0.6554" stop-color="#7490b3" offset="0.3446" ></stop><stop id="SvgjsStop8134" stop-opacity="0.2966" stop-color="#6589c0" offset="0.7034" ></stop><stop id="SvgjsStop8135" stop-opacity="0" stop-color="#6086c4" offset="1" ></stop></linearGradient></defs></svg>